<?xml version="1.0" encoding="UTF-8"?>
<svg width="191px" height="75px" viewBox="0 0 191 75" version="1.1" xmlns="http://www.w3.org/2000/svg" xmlns:xlink="http://www.w3.org/1999/xlink">
    <title>Path 3</title>
    <g id="Page-1" stroke="none" stroke-width="1" fill="none" fill-rule="evenodd">
        <g id="Repository-List,-Empty" transform="translate(-717.000000, -163.000000)" fill="#CACACA" fill-rule="nonzero">
            <path id="Path-3" d="M903.81763,163.233787 L907.683662,172.523771 L903.65,172.243 L903.619119,172.447048 C902.305468,180.792877 899.27752,189.415472 893.992551,197.659331 C886.761069,208.939495 875.966498,218.385907 861.031304,225.280547 C844.762427,232.790865 817.766833,236.208357 779.363504,237.051934 C778.254373,237.076297 777.15948,237.098554 776.070861,237.118783 L774.984038,237.138339 C774.803151,237.141486 774.622364,237.144578 774.441641,237.147615 L773.357774,237.165175 L772.273664,237.181427 C767.753577,237.24644 763.181099,237.277831 757.980114,237.281274 L756.079613,237.281316 C750.290682,237.277878 743.688025,237.242636 735.545905,237.182736 C727.245417,237.121672 723.436464,237.09675 719.875912,237.088963 L719.402271,237.088024 L718.692441,237.086976 L717,237.086028 L717,236.086028 L718.693613,236.086976 C718.93095,236.087257 719.167291,236.087605 719.403893,236.088025 L719.877818,236.088964 C723.440461,236.096753 727.250582,236.121683 735.553261,236.182763 C743.691625,236.242635 750.290897,236.277862 756.076313,236.281307 L757.975637,236.281269 C762.965426,236.277976 767.375838,236.248946 771.716231,236.189169 L772.800165,236.173581 C773.161187,236.168169 773.522017,236.162542 773.88295,236.156694 L774.966355,236.138492 L775.508842,236.128892 L776.596493,236.108683 C777.504723,236.091278 778.418205,236.072457 779.341543,236.052175 C817.609325,235.211575 844.50965,231.806144 860.612172,224.372622 C875.373504,217.558243 886.021703,208.239922 893.150692,197.119633 C898.380383,188.962 901.366204,180.427407 902.649584,172.174559 L898.705262,171.900603 L903.81763,163.233787 Z"></path>
        </g>
    </g>
</svg>